<?xml version="1.0" encoding="utf-8"?>
<svg width="18px" height="18px" viewBox="43.66183853149414 51.830345153808594 44.753787994384766 52.55133056640625" xmlns="http://www.w3.org/2000/svg" xmlns:bx="https://boxy-svg.com">
  <path d="M 88 96.436 C 88 97.677 87.358 98.795 86.078 99.79 C 84.797 100.784 83.089 101.582 80.954 102.183 C 78.818 102.783 76.474 103.237 73.922 103.541 C 71.37 103.847 68.729 104 66 104 C 63.271 104 60.63 103.847 58.078 103.541 C 55.526 103.237 53.183 102.783 51.047 102.183 C 48.911 101.582 47.204 100.784 45.922 99.79 C 44.641 98.795 44 97.677 44 96.436 C 44 95.471 44.344 94.599 45.03 93.822 C 45.719 93.044 46.667 92.388 47.875 91.857 C 49.084 91.324 50.311 90.887 51.563 90.542 C 52.812 90.197 54.177 89.907 55.656 89.67 C 56.198 89.572 56.698 89.675 57.156 89.981 C 57.614 90.285 57.886 90.694 57.968 91.207 C 58.074 91.719 57.964 92.192 57.641 92.624 C 57.317 93.058 56.887 93.314 56.344 93.393 C 55.135 93.59 54.031 93.822 53.03 94.088 C 52.032 94.353 51.234 94.604 50.64 94.841 C 50.046 95.077 49.541 95.309 49.124 95.535 C 48.709 95.762 48.421 95.953 48.265 96.112 C 48.109 96.269 48.021 96.387 48 96.466 C 48.063 96.683 48.344 96.944 48.843 97.249 C 49.342 97.554 50.104 97.88 51.124 98.224 C 52.145 98.568 53.333 98.888 54.688 99.185 C 56.042 99.479 57.713 99.726 59.704 99.923 C 61.692 100.12 63.792 100.217 66 100.217 C 68.208 100.217 70.308 100.12 72.296 99.923 C 74.287 99.726 75.958 99.479 77.312 99.185 C 78.667 98.888 79.855 98.563 80.875 98.208 C 81.894 97.855 82.657 97.525 83.156 97.219 C 83.656 96.913 83.937 96.643 83.999 96.407 C 83.979 96.328 83.891 96.22 83.735 96.081 C 83.579 95.944 83.291 95.757 82.876 95.52 C 82.459 95.284 81.954 95.052 81.359 94.826 C 80.766 94.599 79.968 94.353 78.968 94.088 C 77.969 93.822 76.864 93.59 75.655 93.393 C 75.113 93.314 74.683 93.058 74.359 92.624 C 74.036 92.192 73.926 91.719 74.032 91.207 C 74.114 90.694 74.386 90.285 74.844 89.981 C 75.302 89.675 75.802 89.572 76.343 89.67 C 77.823 89.907 79.188 90.197 80.437 90.542 C 81.689 90.887 82.916 91.324 84.124 91.857 C 85.333 92.388 86.28 93.044 86.969 93.822 C 87.656 94.599 88 95.471 88 96.436 Z M 75.998 69.963 L 75.998 81.308 C 75.998 81.821 75.802 82.264 75.406 82.638 C 75.011 83.013 74.541 83.2 74.001 83.2 L 72.001 83.2 L 72.001 94.545 C 72.001 95.057 71.803 95.5 71.407 95.874 C 71.011 96.249 70.542 96.436 70 96.436 L 61.999 96.436 C 61.458 96.436 60.989 96.249 60.593 95.874 C 60.197 95.5 59.999 95.057 59.999 94.545 L 59.999 83.2 L 57.999 83.2 C 57.459 83.2 56.99 83.013 56.593 82.638 C 56.198 82.264 56 81.821 56 81.308 L 56 69.963 C 56 68.92 56.39 68.028 57.173 67.29 C 57.952 66.552 58.897 66.181 59.999 66.181 L 72.001 66.181 C 73.103 66.181 74.048 66.552 74.827 67.29 C 75.609 68.028 75.998 68.92 75.998 69.963 Z M 72.999 58.619 C 72.999 60.45 72.318 62.011 70.954 63.301 C 69.589 64.591 67.938 65.236 66 65.236 C 64.062 65.236 62.41 64.591 61.046 63.301 C 59.682 62.011 59 60.45 59 58.619 C 59 56.786 59.682 55.225 61.046 53.935 C 62.41 52.645 64.062 52 66 52 C 67.938 52 69.589 52.645 70.954 53.935 C 72.318 55.225 72.999 56.786 72.999 58.619 Z" style="fill: rgb(102, 153, 255);" transform="matrix(1, -0.000001, 0.000001, 1, -0.000046, 0.000039)" bx:origin="0 0"/>
</svg>