<?xml version="1.0" encoding="UTF-8"?>
<!DOCTYPE svg PUBLIC "-//W3C//DTD SVG 1.1//EN" "http://www.w3.org/Graphics/SVG/1.1/DTD/svg11.dtd">
<svg xmlns="http://www.w3.org/2000/svg" viewBox="0 0 502 84" version="1.1" width="116" height="19" preserveAspectRatio="xMidYMid meet">
 <g id="#ffa200ff">
  <path fill="#ffa200" opacity="1.00" d=" M 394.51 0.00 L 462.49 0.00 C 473.13 0.67 483.46 5.37 490.75 13.19 C 497.44 20.21 501.34 29.67 502.00 39.32 L 502.00 42.75 C 501.64 53.68 496.86 64.38 488.82 71.82 C 481.13 79.10 470.59 83.15 460.02 83.05 C 439.01 83.07 417.99 83.10 396.98 83.03 C 381.77 83.14 367.03 74.06 360.22 60.48 L 359.96 59.98 C 352.83 45.96 354.68 27.87 364.68 15.68 C 371.88 6.58 382.98 0.94 394.51 0.00 M 391.67 10.12 C 391.62 20.13 391.65 30.13 391.65 40.13 C 396.35 40.11 401.04 40.22 405.74 40.03 C 405.67 30.07 405.71 20.11 405.72 10.15 C 401.03 10.12 396.35 10.14 391.67 10.12 M 437.30 15.34 C 435.92 16.90 436.13 19.08 436.08 21.00 C 436.12 34.66 436.09 48.32 436.09 61.99 C 436.14 63.92 436.11 66.08 437.48 67.63 C 440.26 71.87 448.02 70.38 448.76 65.24 C 449.35 55.94 448.75 46.58 449.06 37.26 C 457.23 47.39 465.01 57.84 473.15 67.99 C 476.45 72.19 485.02 69.72 484.68 64.06 C 484.71 49.03 484.76 34.00 484.66 18.97 C 484.88 13.99 478.80 11.34 474.82 13.69 C 472.53 14.89 471.80 17.62 471.77 20.02 C 471.67 28.67 471.87 37.32 471.69 45.97 C 463.71 35.74 455.59 25.61 447.53 15.45 C 445.27 12.13 439.55 11.91 437.30 15.34 M 371.16 31.04 C 366.76 42.42 370.71 56.27 380.33 63.72 C 389.01 70.88 401.97 72.08 411.88 66.81 C 422.85 61.19 429.55 48.18 427.08 35.99 C 425.63 26.41 418.62 18.46 410.02 14.40 C 410.01 19.58 409.96 24.77 410.04 29.95 C 412.36 32.84 414.34 36.23 414.41 40.05 C 415.08 47.30 409.89 54.42 402.91 56.29 C 393.31 59.57 381.96 51.30 382.40 41.07 C 382.05 36.85 384.54 33.38 386.48 29.90 C 386.78 24.72 386.44 19.52 386.64 14.33 C 379.53 17.59 373.77 23.62 371.16 31.04 Z"/>
 </g>
 <g id="#ffffffff">
  <path fill="#ffffff" opacity="1.00" d=" M 391.67 10.12 C 396.35 10.14 401.03 10.12 405.72 10.15 C 405.71 20.11 405.67 30.07 405.74 40.03 C 401.04 40.22 396.35 40.11 391.65 40.13 C 391.65 30.13 391.62 20.13 391.67 10.12 Z"/>
  <path fill="#ffffff" opacity="1.00" d=" M 25.14 13.23 C 34.57 11.84 44.62 15.86 50.47 23.38 C 53.32 26.85 50.70 33.30 46.02 33.03 C 41.24 33.78 39.11 28.30 34.92 27.17 C 26.12 23.12 14.85 29.34 13.40 38.86 C 11.86 46.34 16.98 54.10 24.17 56.24 C 28.80 57.87 34.12 56.95 38.12 54.20 C 40.58 52.40 42.65 49.27 46.06 49.50 C 49.46 49.42 52.25 52.70 52.17 55.99 C 51.94 58.05 50.76 59.84 49.35 61.30 C 44.62 66.31 37.94 69.28 31.12 69.97 C 19.80 70.86 8.38 64.18 3.46 53.98 C 0.39 48.15 -0.23 41.20 1.23 34.82 C 3.82 23.64 13.78 14.73 25.14 13.23 Z"/>
  <path fill="#ffffff" opacity="1.00" d=" M 62.87 13.60 C 66.46 11.67 71.48 14.52 71.60 18.63 C 71.93 24.08 71.63 29.54 71.73 35.00 C 78.62 35.00 85.51 35.00 92.40 35.00 C 92.55 29.38 92.09 23.74 92.64 18.14 C 93.14 13.59 99.23 11.41 102.63 14.34 C 105.02 16.12 105.16 19.27 105.15 21.99 C 105.10 35.32 105.17 48.65 105.12 61.98 C 105.23 65.25 103.71 69.28 100.12 69.92 C 96.41 70.87 92.67 67.82 92.53 64.08 C 92.22 58.40 92.49 52.69 92.40 47.00 C 85.51 47.00 78.62 47.00 71.73 47.00 C 71.67 52.68 71.85 58.36 71.66 64.03 C 71.59 67.49 68.36 70.48 64.88 70.03 C 61.39 69.89 58.93 66.36 59.14 63.05 C 59.14 48.66 59.11 34.27 59.15 19.88 C 59.08 17.33 60.37 14.54 62.87 13.60 Z"/>
  <path fill="#ffffff" opacity="1.00" d=" M 131.24 16.34 C 133.48 11.69 141.18 12.20 142.92 17.02 C 149.25 30.68 155.52 44.38 161.84 58.04 C 162.62 59.93 163.62 62.00 163.09 64.08 C 162.37 67.77 157.91 70.12 154.47 68.60 C 150.75 67.33 149.92 63.04 148.15 60.00 C 140.71 60.00 133.27 60.01 125.83 59.99 C 124.22 63.14 123.31 67.45 119.52 68.67 C 115.71 70.22 110.92 67.07 110.96 62.93 C 111.18 60.47 112.49 58.30 113.40 56.06 C 119.41 42.85 125.16 29.51 131.24 16.34 M 136.90 33.35 C 134.62 38.52 132.63 43.81 130.40 49.00 C 134.84 49.00 139.29 49.00 143.74 48.99 C 141.33 43.85 139.55 38.35 136.90 33.35 Z"/>
  <path fill="#ffffff" opacity="1.00" d=" M 175.91 18.00 C 176.39 15.00 178.89 12.93 181.81 12.44 C 184.39 12.94 186.82 14.50 187.65 17.11 C 190.71 25.44 193.74 33.77 196.73 42.12 C 199.93 33.85 202.69 25.42 205.88 17.14 C 206.81 14.36 209.75 11.93 212.79 12.84 C 215.76 13.28 217.37 16.22 217.92 18.91 C 221.43 32.93 224.84 46.98 228.25 61.02 C 229.47 64.94 226.07 69.28 222.01 69.03 C 219.10 69.11 216.51 66.74 215.94 63.95 C 213.79 56.06 212.21 48.03 210.08 40.13 C 207.38 48.23 205.02 56.45 202.35 64.56 C 201.50 66.97 199.89 69.68 197.12 70.04 C 194.38 70.32 192.42 67.86 191.66 65.51 C 188.86 56.99 186.47 48.33 183.63 39.82 C 182.25 47.28 180.12 54.59 178.58 62.03 C 178.07 65.05 176.42 68.45 173.06 68.96 C 168.65 69.97 164.42 65.47 165.71 61.12 C 169.12 46.75 172.42 32.35 175.91 18.00 Z"/>
  <path fill="#ffffff" opacity="1.00" d=" M 283.86 13.81 C 285.55 12.49 287.81 13.16 289.79 12.94 C 291.94 14.22 293.70 16.35 293.69 18.97 C 293.80 31.64 293.70 44.32 293.73 57.00 C 299.74 57.09 305.77 56.82 311.77 57.12 C 316.43 57.61 318.31 63.95 315.14 67.14 C 313.43 69.23 310.49 69.02 308.07 69.02 C 301.02 68.91 293.96 69.14 286.92 68.91 C 283.48 68.58 280.92 65.52 281.10 62.10 C 280.86 48.74 281.08 35.36 280.99 22.00 C 281.01 19.11 281.15 15.55 283.86 13.81 Z"/>
  <path fill="#ffffff" opacity="1.00" d=" M 437.30 15.34 C 439.55 11.91 445.27 12.13 447.53 15.45 C 455.59 25.61 463.71 35.74 471.69 45.97 C 471.87 37.32 471.67 28.67 471.77 20.02 C 471.80 17.62 472.53 14.89 474.82 13.69 C 478.80 11.34 484.88 13.99 484.66 18.97 C 484.76 34.00 484.71 49.03 484.68 64.06 C 485.02 69.72 476.45 72.19 473.15 67.99 C 465.01 57.84 457.23 47.39 449.06 37.26 C 448.75 46.58 449.35 55.94 448.76 65.24 C 448.02 70.38 440.26 71.87 437.48 67.63 C 436.11 66.08 436.14 63.92 436.09 61.99 C 436.09 48.32 436.12 34.66 436.08 21.00 C 436.13 19.08 435.92 16.90 437.30 15.34 Z"/>
  <path fill="#ffffff" opacity="1.00" d=" M 241.29 14.00 C 249.92 14.04 258.55 13.93 267.18 14.04 C 270.32 14.03 273.23 16.83 272.90 20.06 C 273.15 23.26 270.27 26.05 267.14 25.98 C 261.00 26.06 254.87 25.97 248.73 26.00 C 248.73 29.00 248.73 32.00 248.73 35.00 C 254.15 35.22 259.66 34.55 265.03 35.34 C 270.14 36.49 269.90 44.72 264.84 45.79 C 259.50 46.29 254.10 45.85 248.73 46.00 C 248.73 49.67 248.73 53.33 248.73 57.00 C 254.86 57.02 260.99 56.97 267.11 57.01 C 270.37 56.92 273.72 59.50 273.44 62.99 C 273.76 66.55 270.30 69.21 266.98 69.00 C 258.97 68.98 250.96 69.03 242.95 68.98 C 239.15 69.15 235.73 65.89 236.08 62.00 C 235.95 48.31 235.92 34.59 236.10 20.89 C 235.94 17.62 238.24 14.90 241.29 14.00 Z"/>
  <path fill="#ffffff" opacity="1.00" d=" M 324.49 16.45 C 325.96 14.46 328.58 13.87 330.93 13.98 C 337.96 14.00 345.00 14.01 352.03 13.98 C 354.18 13.97 356.63 14.03 358.23 15.72 C 361.56 18.77 359.77 25.46 355.05 25.87 C 348.62 26.20 342.17 25.90 335.73 26.00 C 335.73 29.00 335.73 32.00 335.73 35.00 C 341.14 35.20 346.62 34.57 351.99 35.33 C 356.90 36.42 356.77 44.81 351.82 45.80 C 346.48 46.30 341.09 45.85 335.73 46.00 C 335.73 49.67 335.73 53.33 335.73 57.00 C 341.86 57.04 347.98 56.93 354.11 57.02 C 356.44 56.92 358.45 58.33 359.96 59.98 L 360.22 60.48 C 361.15 64.03 359.61 68.29 355.62 68.87 C 348.43 69.22 341.20 68.87 334.00 69.02 C 330.91 68.98 327.24 69.43 324.87 66.98 C 323.00 65.21 323.12 62.43 323.00 60.07 C 322.98 48.05 323.02 36.02 322.99 24.00 C 323.10 21.46 322.86 18.60 324.49 16.45 Z"/>
  <path fill="#ffffff" opacity="1.00" d=" M 371.16 31.04 C 373.77 23.62 379.53 17.59 386.64 14.33 C 386.44 19.52 386.78 24.72 386.48 29.90 C 384.54 33.38 382.05 36.85 382.40 41.07 C 381.96 51.30 393.31 59.57 402.91 56.29 C 409.89 54.42 415.08 47.30 414.41 40.05 C 414.34 36.23 412.36 32.84 410.04 29.95 C 409.96 24.77 410.01 19.58 410.02 14.40 C 418.62 18.46 425.63 26.41 427.08 35.99 C 429.55 48.18 422.85 61.19 411.88 66.81 C 401.97 72.08 389.01 70.88 380.33 63.72 C 370.71 56.27 366.76 42.42 371.16 31.04 Z"/>
 </g>
</svg>
