<?xml version="1.0" encoding="UTF-8" ?>
<!DOCTYPE svg PUBLIC "-//W3C//DTD SVG 1.1//EN" "http://www.w3.org/Graphics/SVG/1.1/DTD/svg11.dtd">
<svg width="347pt" height="221pt" viewBox="0 0 347 221" version="1.1" xmlns="http://www.w3.org/2000/svg">
<g id="#cdcdcdff">
<path fill="#363A45" opacity="1.00" d=" M 7.00 11.99 C 13.19 4.31 23.30 0.69 32.94 0.54 C 94.96 0.56 156.97 0.54 218.99 0.55 C 227.93 0.80 237.17 4.00 243.36 10.67 C 248.64 16.37 250.78 24.31 250.71 31.95 C 250.72 84.32 250.72 136.69 250.71 189.06 C 250.76 196.46 248.77 204.15 243.81 209.81 C 237.65 216.82 228.15 220.16 219.00 220.44 C 156.99 220.46 94.98 220.44 32.97 220.45 C 23.28 220.30 13.14 216.68 6.93 208.97 C 1.74 202.61 0.24 193.95 0.95 185.95 L 0.00 196.16 L 0.00 25.09 L 0.95 36.01 C 0.23 27.71 1.56 18.60 7.00 11.99 Z" />
<path fill="#363A45" opacity="1.00" d=" M 340.25 5.32 C 342.40 3.76 344.20 1.39 347.00 1.02 L 347.00 219.77 C 344.62 220.02 343.13 217.81 341.36 216.61 C 317.31 197.62 293.23 178.68 269.14 159.76 C 269.07 127.13 269.19 94.50 269.08 61.86 C 292.79 43.00 316.53 24.18 340.25 5.32 Z" />
</g>
</svg>
