<svg width="256" height="256" xmlns="http://www.w3.org/2000/svg">

 <g>
  <title>background</title>
  <rect fill="none" id="canvas_background" height="402" width="582" y="-1" x="-1"/>
 </g>
 <g>
  <title>Layer 1</title>
  <ellipse fill-opacity="1" ry="118.571423" rx="119.033508" id="svg_2" cy="128.000006" cx="128.000007" stroke-opacity="null" stroke-width="null" stroke="null" fill="#000000"/>
  <path fill="#ffffff" id="svg_1" d="m52.688,128c0,-3.533997 2.865002,-6 6.400002,-6l122.033993,0l-47.140991,-45.956001c-2.53801,-2.462997 -2.597,-6.615997 -0.138,-9.149002c1.255997,-1.294998 2.925003,-1.994995 4.593994,-1.994995c1.606003,0 3.216003,0.575996 4.456009,1.781998l58.465988,56.737c1.244003,1.206001 1.943008,2.855003 1.943008,4.586998s-0.699005,3.38501 -1.943008,4.591003l-58.465988,56.742996c-2.528,2.459 -6.584,2.401001 -9.050003,-0.138992c-2.459,-2.533997 -2.400009,-6.789001 0.138,-9.251007l47.140991,-45.949997l-122.033993,0c-3.535,0 -6.400002,-2.466003 -6.400002,-6zm-52.688,0c0,70.578003 57.422001,128 128,128s128,-57.421997 128,-128s-57.421997,-128 -128,-128s-128,57.422001 -128,128zm12.8,0c0,-63.521004 51.678996,-115.2 115.2,-115.2s115.199997,51.678996 115.199997,115.2s-51.679001,115.199997 -115.199997,115.199997s-115.2,-51.679001 -115.2,-115.199997z"/>
 </g>
</svg>