<svg width="256" height="256" xmlns="http://www.w3.org/2000/svg">

 <g>
  <title>background</title>
  <rect fill="none" id="canvas_background" height="402" width="582" y="-1" x="-1"/>
 </g>
 <g>
  <title>Layer 1</title>
  <ellipse fill-opacity="1" ry="119.8548" rx="119.8548" id="svg_5" cy="127.999995" cx="127.999999" stroke-width="1.5" stroke="#000" fill="#000000"/>
  <path fill="#ffffff" id="svg_1" d="m203.313004,128c0,3.533997 -2.865005,6 -6.400009,6l-122.034996,0l47.140999,45.955994c2.538002,2.463013 2.597,6.616013 0.138,9.149002c-1.255997,1.294998 -2.924995,1.99501 -4.593994,1.99501c-1.606003,0 -3.216003,-0.576004 -4.456001,-1.782013l-58.466003,-56.737c-1.243999,-1.205994 -1.942997,-2.854996 -1.942997,-4.58699s0.698997,-3.385002 1.942997,-4.591003l58.466003,-56.742996c2.528,-2.459007 6.584,-2.401001 9.049995,0.139c2.459,2.533997 2.400002,6.788994 -0.138,9.250999l-47.140999,45.949997l122.033989,0c3.535019,0 6.401016,2.466003 6.401016,6zm52.686996,0c0,-70.577999 -57.421997,-128 -128,-128s-128,57.422001 -128,128s57.422001,128 128,128s128,-57.421997 128,-128zm-12.800003,0c0,63.520996 -51.679001,115.199997 -115.199997,115.199997s-115.2,-51.679001 -115.2,-115.199997s51.678996,-115.2 115.2,-115.2s115.199997,51.678996 115.199997,115.2z"/>
 </g>
</svg>