<?xml version="1.0" encoding="UTF-8"?>
<!DOCTYPE svg PUBLIC "-//W3C//DTD SVG 1.1//EN" "http://www.w3.org/Graphics/SVG/1.1/DTD/svg11.dtd">
<svg xmlns="http://www.w3.org/2000/svg" viewBox="0 0 1558 192" version="1.1" width="280" height="35" preserveAspectRatio="xMidYMid meet">
 <path fill="#ffffff" opacity="1.00" d=" M 1536.06 0.00 L 1539.19 0.00 C 1544.90 0.58 1550.58 3.43 1553.73 8.37 C 1557.58 14.08 1558.12 21.86 1554.90 27.98 C 1552.06 34.07 1545.59 38.01 1538.97 38.38 C 1531.88 38.81 1524.55 35.08 1521.19 28.74 C 1517.80 22.87 1517.86 15.23 1521.35 9.42 C 1524.24 4.00 1530.11 0.81 1536.06 0.00 M 1533.46 3.81 C 1526.73 5.56 1521.87 12.11 1521.86 19.01 C 1521.47 28.09 1529.96 36.10 1539.00 35.21 C 1548.33 34.81 1555.62 25.17 1553.52 16.08 C 1552.09 7.13 1542.06 1.07 1533.46 3.81 Z"/>
 <path fill="#ffffff" opacity="1.00" d=" M 1258.01 2.49 C 1260.75 2.50 1263.50 2.50 1266.25 2.50 C 1266.25 51.92 1266.26 101.34 1266.25 150.75 C 1263.49 150.75 1260.74 150.75 1258.00 150.76 C 1257.98 143.12 1258.03 135.49 1257.97 127.86 C 1253.39 136.79 1246.50 144.93 1237.26 149.23 C 1228.73 153.10 1219.02 153.88 1209.81 152.67 C 1198.32 151.18 1187.68 144.34 1181.51 134.55 C 1173.72 122.64 1171.56 107.94 1172.00 93.97 C 1172.44 79.76 1176.22 64.82 1186.30 54.29 C 1201.28 38.69 1227.88 37.21 1245.16 49.81 C 1251.20 54.27 1255.57 60.70 1258.01 67.77 C 1258.00 46.01 1257.99 24.25 1258.01 2.49 M 1211.11 49.15 C 1201.03 50.81 1192.21 57.53 1187.18 66.31 C 1181.16 76.76 1179.67 89.17 1180.02 101.04 C 1180.69 113.07 1184.08 125.55 1192.30 134.67 C 1204.77 148.99 1229.32 150.10 1243.06 137.02 C 1249.36 131.24 1253.38 123.33 1255.58 115.15 C 1258.94 102.55 1258.65 88.99 1254.67 76.57 C 1251.84 67.76 1246.72 59.27 1238.79 54.19 C 1230.78 48.71 1220.51 47.53 1211.11 49.15 Z"/>
 <path fill="#ffffff" opacity="1.00" d=" M 1531.71 8.86 C 1535.43 8.52 1539.74 7.68 1543.04 9.99 C 1546.37 12.63 1545.12 18.36 1541.17 19.72 C 1544.53 22.11 1544.35 26.61 1545.61 30.14 C 1544.91 30.10 1543.50 30.03 1542.80 30.00 C 1541.77 27.54 1541.73 24.75 1540.47 22.39 C 1539.19 20.35 1536.46 20.95 1534.48 20.74 C 1534.46 23.85 1534.46 26.96 1534.47 30.07 C 1533.78 30.07 1532.40 30.06 1531.71 30.06 C 1531.70 23.00 1531.70 15.93 1531.71 8.86 M 1534.47 18.69 C 1536.52 18.57 1538.87 19.02 1540.66 17.71 C 1542.65 16.30 1542.72 12.83 1540.66 11.45 C 1538.84 10.23 1536.53 10.72 1534.52 10.70 C 1534.44 13.37 1534.45 16.03 1534.47 18.69 Z"/>
 <path fill="#c30909" opacity="1.00" d=" M 789.02 14.80 C 800.44 11.91 812.30 12.70 823.96 12.60 C 855.97 12.60 887.98 12.60 919.99 12.60 C 931.96 12.73 944.12 11.85 955.85 14.80 C 975.12 19.23 992.56 30.82 1004.31 46.68 C 1014.92 60.84 1020.95 78.34 1021.32 96.03 C 1021.88 115.06 1015.87 134.19 1004.52 149.47 C 989.27 170.36 964.03 183.60 938.11 183.78 C 894.07 183.80 850.02 183.83 805.97 183.77 C 775.66 183.34 746.54 164.82 733.13 137.68 C 732.77 136.96 732.41 136.25 732.04 135.55 C 726.89 124.78 723.45 112.75 723.94 100.75 C 724.67 98.02 724.69 95.18 724.05 92.43 C 723.90 83.06 726.67 73.78 730.07 65.10 C 740.22 40.22 762.76 20.75 789.02 14.80 M 796.90 33.47 C 796.86 54.07 796.89 74.66 796.89 95.26 C 806.39 95.27 815.90 95.27 825.41 95.26 C 825.42 74.67 825.41 54.07 825.41 33.48 C 815.91 33.45 806.40 33.47 796.90 33.47 M 887.33 50.09 C 887.18 79.74 887.33 109.39 887.26 139.04 C 887.11 143.06 887.93 147.30 890.51 150.50 C 895.27 156.86 906.52 156.68 910.87 149.93 C 913.07 146.75 913.63 142.76 913.59 138.97 C 913.52 121.67 913.66 104.38 913.51 87.08 C 929.04 107.65 944.83 128.02 960.47 148.50 C 963.00 151.57 965.66 155.45 969.96 155.91 C 977.94 157.26 986.09 150.01 985.72 141.94 C 985.87 112.27 985.72 82.60 985.79 52.93 C 985.91 49.17 985.18 45.23 982.88 42.17 C 978.77 36.35 969.43 35.51 964.20 40.25 C 960.87 43.19 959.62 47.76 959.50 52.05 C 959.43 69.91 959.55 87.78 959.44 105.64 C 943.50 84.91 927.33 64.36 911.26 43.73 C 908.62 40.13 904.69 37.00 900.00 37.23 C 893.09 36.84 887.19 43.37 887.33 50.09 M 753.95 80.92 C 750.34 95.05 751.60 110.59 758.32 123.62 C 766.53 140.16 782.90 152.41 801.16 155.39 C 811.75 156.82 822.85 156.08 832.74 151.76 C 845.17 146.58 855.77 137.11 862.16 125.23 C 871.47 108.43 871.69 87.09 863.19 69.93 C 857.17 57.63 846.41 48.09 834.17 42.21 C 834.30 52.67 833.95 63.15 834.34 73.59 C 838.15 78.45 841.43 83.93 842.44 90.13 C 844.89 101.60 840.58 114.11 831.81 121.83 C 821.70 131.07 805.54 132.48 794.00 125.10 C 780.36 117.18 774.34 98.84 780.50 84.34 C 781.77 80.40 784.71 77.32 786.52 73.70 C 786.68 63.13 786.54 52.54 786.57 41.96 C 770.61 49.27 758.36 63.93 753.95 80.92 Z"/>
 <path fill="#ffffff" opacity="1.00" d=" M 796.90 33.47 C 806.40 33.47 815.91 33.45 825.41 33.48 C 825.41 54.07 825.42 74.67 825.41 95.26 C 815.90 95.27 806.39 95.27 796.89 95.26 C 796.89 74.66 796.86 54.07 796.90 33.47 Z"/>
 <path fill="#ffffff" opacity="1.00" d=" M 887.33 50.09 C 887.19 43.37 893.09 36.84 900.00 37.23 C 904.69 37.00 908.62 40.13 911.26 43.73 C 927.33 64.36 943.50 84.91 959.44 105.64 C 959.55 87.78 959.43 69.91 959.50 52.05 C 959.62 47.76 960.87 43.19 964.20 40.25 C 969.43 35.51 978.77 36.35 982.88 42.17 C 985.18 45.23 985.91 49.17 985.79 52.93 C 985.72 82.60 985.87 112.27 985.72 141.94 C 986.09 150.01 977.94 157.26 969.96 155.91 C 965.66 155.45 963.00 151.57 960.47 148.50 C 944.83 128.02 929.04 107.65 913.51 87.08 C 913.66 104.38 913.52 121.67 913.59 138.97 C 913.63 142.76 913.07 146.75 910.87 149.93 C 906.52 156.68 895.27 156.86 890.51 150.50 C 887.93 147.30 887.11 143.06 887.26 139.04 C 887.33 109.39 887.18 79.74 887.33 50.09 Z"/>
 <path fill="#ffffff" opacity="1.00" d=" M 7.21 69.20 C 16.90 51.32 36.54 39.13 56.95 39.01 C 69.87 38.67 82.67 43.24 92.79 51.18 C 97.75 55.18 103.70 59.95 103.71 66.93 C 104.18 74.18 97.23 80.65 90.03 79.69 C 82.53 79.03 78.92 71.32 72.45 68.50 C 59.00 61.21 40.65 65.43 32.08 78.21 C 22.34 91.07 24.08 110.97 36.31 121.64 C 46.90 131.79 64.51 133.01 76.41 124.44 C 80.84 121.18 84.17 115.80 90.04 115.03 C 96.91 113.66 103.98 119.14 104.65 126.03 C 105.38 131.56 101.69 136.34 97.95 139.95 C 85.39 152.01 67.16 158.12 49.88 155.53 C 39.63 154.12 29.99 149.50 21.93 143.10 C 9.07 132.80 0.80 116.94 0.00 100.45 L 0.00 94.20 C 0.56 85.47 2.93 76.85 7.21 69.20 Z"/>
 <path fill="#ffffff" opacity="1.00" d=" M 123.18 43.24 C 126.69 39.51 132.55 38.85 137.19 40.57 C 142.12 42.50 144.84 47.87 144.95 52.96 C 145.08 63.53 144.95 74.10 145.01 84.67 C 158.98 84.66 172.96 84.67 186.94 84.67 C 186.96 74.45 186.92 64.23 186.95 54.01 C 186.97 50.69 187.67 47.25 189.66 44.52 C 194.16 38.05 205.10 38.04 209.73 44.37 C 211.86 47.09 212.68 50.61 212.70 54.02 C 212.71 82.69 212.70 111.35 212.71 140.01 C 212.69 143.97 211.77 148.08 209.29 151.24 C 204.76 157.23 194.38 157.08 189.98 151.00 C 187.77 148.16 186.93 144.49 186.94 140.95 C 186.93 130.14 186.95 119.34 186.94 108.53 C 172.96 108.53 158.98 108.53 145.00 108.53 C 144.99 119.35 145.02 130.17 144.99 140.98 C 144.99 144.51 144.21 148.18 142.01 151.02 C 137.58 157.06 127.36 157.17 122.67 151.39 C 120.21 148.55 119.22 144.72 119.24 141.02 C 119.23 112.34 119.24 83.65 119.23 54.97 C 119.17 50.78 120.20 46.33 123.18 43.24 Z"/>
 <path fill="#ffffff" opacity="1.00" d=" M 366.02 42.09 C 370.12 38.78 376.60 38.89 380.55 42.38 C 382.99 44.46 384.38 47.44 385.48 50.38 C 391.44 66.98 397.41 83.59 403.38 100.19 C 409.14 84.09 414.87 67.98 420.62 51.87 C 421.77 48.81 423.05 45.70 425.24 43.22 C 429.34 38.43 437.57 38.60 441.80 43.11 C 444.15 45.48 445.45 48.65 446.18 51.86 C 453.05 80.20 459.95 108.53 466.83 136.87 C 467.86 141.26 468.13 146.42 465.13 150.14 C 461.92 154.48 455.97 156.40 450.84 154.66 C 446.34 153.39 443.31 149.17 442.18 144.81 C 438.19 128.42 434.29 112.01 430.33 95.61 C 425.42 111.56 420.52 127.51 415.61 143.45 C 414.53 146.78 413.45 150.38 410.67 152.72 C 407.15 155.97 401.31 156.39 397.45 153.51 C 394.33 151.22 392.74 147.52 391.63 143.93 C 386.72 127.83 381.85 111.72 376.93 95.63 C 373.12 111.78 369.45 127.97 365.57 144.11 C 364.49 148.62 361.71 153.29 356.99 154.63 C 351.70 156.40 345.32 154.58 342.21 149.84 C 339.41 145.76 339.69 140.45 341.02 135.89 C 347.70 107.54 354.24 79.15 360.90 50.79 C 361.64 47.46 363.24 44.18 366.02 42.09 Z"/>
 <path fill="#ffffff" opacity="1.00" d=" M 574.33 44.40 C 578.85 37.96 589.92 38.08 594.33 44.60 C 596.31 47.31 597.06 50.73 597.06 54.04 C 597.06 79.54 597.05 105.04 597.07 130.54 C 608.70 130.60 620.35 130.38 631.98 130.65 C 638.01 130.82 643.83 135.72 643.56 142.05 C 644.25 148.67 638.38 154.45 631.88 154.36 C 616.92 154.46 601.95 154.36 586.99 154.40 C 582.87 154.41 578.43 153.63 575.33 150.71 C 572.15 147.76 571.29 143.20 571.30 139.04 C 571.29 110.99 571.29 82.94 571.30 54.89 C 571.31 51.22 572.02 47.36 574.33 44.40 Z"/>
 <path fill="#ffffff" opacity="1.00" d=" M 265.68 47.54 C 268.77 40.28 278.77 38.34 285.05 42.53 C 287.42 43.99 288.98 46.39 290.09 48.88 C 302.50 76.21 314.95 103.53 327.37 130.86 C 329.08 134.74 331.19 138.69 330.94 143.07 C 330.81 150.06 323.96 155.89 317.07 155.25 C 312.39 155.10 308.22 151.98 306.18 147.87 C 304.06 143.62 302.36 139.18 300.21 134.95 C 285.19 135.06 270.16 134.97 255.14 135.00 C 252.29 140.75 251.05 147.61 246.18 152.12 C 240.90 156.81 231.96 155.75 227.71 150.18 C 224.43 146.46 224.40 140.92 226.35 136.56 C 239.53 106.92 252.44 77.15 265.68 47.54 M 264.41 112.33 C 273.40 112.33 282.38 112.34 291.37 112.33 C 286.83 101.41 282.29 90.49 277.72 79.59 C 273.29 90.50 268.84 101.41 264.41 112.33 Z"/>
 <path fill="#ffffff" opacity="1.00" d=" M 484.71 44.75 C 487.55 41.66 491.95 40.67 496.01 40.72 C 511.65 40.75 527.29 40.71 542.93 40.74 C 547.53 40.72 552.51 42.80 554.62 47.11 C 556.86 51.91 556.05 58.43 551.71 61.80 C 549.00 64.05 545.38 64.62 541.97 64.60 C 530.25 64.61 518.54 64.59 506.83 64.60 C 506.82 71.65 506.82 78.69 506.83 85.73 C 516.53 85.77 526.23 85.67 535.93 85.78 C 541.59 85.65 547.60 89.91 547.38 96.00 C 548.02 101.98 542.77 107.16 536.95 107.27 C 526.91 107.42 516.87 107.29 506.83 107.33 C 506.81 115.06 506.83 122.80 506.82 130.53 C 519.21 130.57 531.59 130.48 543.97 130.57 C 550.31 130.41 557.02 135.15 556.81 141.95 C 557.54 148.69 551.45 154.48 544.88 154.36 C 528.58 154.45 512.28 154.38 495.98 154.39 C 491.23 154.39 485.92 152.86 483.30 148.58 C 480.56 144.24 481.04 138.91 481.00 134.01 C 481.01 108.33 480.99 82.66 481.00 56.98 C 481.02 52.70 481.68 48.03 484.71 44.75 Z"/>
 <path fill="#ffffff" opacity="1.00" d=" M 662.30 44.35 C 665.11 41.60 669.19 40.71 673.01 40.73 C 688.66 40.74 704.32 40.72 719.98 40.74 C 724.64 40.68 729.72 42.77 731.85 47.15 C 734.06 51.97 733.22 58.49 728.86 61.85 C 726.12 64.08 722.47 64.63 719.04 64.60 C 707.36 64.61 695.68 64.60 684.00 64.60 C 684.00 71.65 683.99 78.69 684.01 85.74 C 693.64 85.76 703.27 85.68 712.90 85.77 C 717.46 85.74 722.20 88.10 724.05 92.43 C 724.69 95.18 724.67 98.02 723.94 100.75 C 722.07 104.97 717.54 107.43 713.01 107.32 C 703.34 107.36 693.67 107.32 684.01 107.33 C 683.99 115.07 683.99 122.80 684.01 130.54 C 696.32 130.56 708.64 130.48 720.95 130.56 C 725.14 130.57 729.34 132.27 732.04 135.55 C 732.41 136.25 732.77 136.96 733.13 137.68 C 734.79 141.99 734.22 147.45 730.82 150.78 C 728.27 153.34 724.58 154.42 721.04 154.40 C 705.38 154.41 689.72 154.39 674.06 154.41 C 669.92 154.44 665.45 153.68 662.31 150.77 C 659.08 147.80 658.18 143.19 658.23 138.98 C 658.24 111.30 658.22 83.63 658.24 55.95 C 658.29 51.81 659.23 47.34 662.30 44.35 Z"/>
 <path fill="#ffffff" opacity="1.00" d=" M 753.95 80.92 C 758.36 63.93 770.61 49.27 786.57 41.96 C 786.54 52.54 786.68 63.13 786.52 73.70 C 784.71 77.32 781.77 80.40 780.50 84.34 C 774.34 98.84 780.36 117.18 794.00 125.10 C 805.54 132.48 821.70 131.07 831.81 121.83 C 840.58 114.11 844.89 101.60 842.44 90.13 C 841.43 83.93 838.15 78.45 834.34 73.59 C 833.95 63.15 834.30 52.67 834.17 42.21 C 846.41 48.09 857.17 57.63 863.19 69.93 C 871.69 87.09 871.47 108.43 862.16 125.23 C 855.77 137.11 845.17 146.58 832.74 151.76 C 822.85 156.08 811.75 156.82 801.16 155.39 C 782.90 152.41 766.53 140.16 758.32 123.62 C 751.60 110.59 750.34 95.05 753.95 80.92 Z"/>
 <path fill="#ffffff" opacity="1.00" d=" M 1070.74 49.89 C 1078.41 43.84 1088.31 41.07 1098.01 41.48 C 1111.61 41.14 1125.49 47.32 1133.42 58.55 C 1141.79 69.97 1144.12 84.64 1143.50 98.50 C 1115.16 98.51 1086.82 98.49 1058.48 98.51 C 1058.37 109.70 1060.82 121.26 1067.22 130.60 C 1072.29 137.79 1079.88 143.46 1088.60 145.20 C 1100.65 147.61 1114.31 145.14 1123.31 136.33 C 1129.55 130.57 1133.08 122.47 1134.71 114.25 C 1137.39 114.25 1140.08 114.25 1142.79 114.22 C 1141.06 125.03 1136.66 135.94 1128.09 143.12 C 1117.95 151.79 1103.82 154.20 1090.88 152.83 C 1078.17 151.69 1066.14 144.46 1059.39 133.59 C 1050.67 120.19 1049.36 103.44 1051.06 87.91 C 1052.74 73.48 1058.89 58.85 1070.74 49.89 M 1077.65 54.65 C 1065.96 63.02 1059.85 77.27 1058.52 91.25 C 1084.20 91.23 1109.87 91.27 1135.55 91.23 C 1134.99 81.99 1132.67 72.63 1127.43 64.88 C 1121.68 56.26 1112.23 49.96 1101.85 48.80 C 1093.43 47.67 1084.52 49.57 1077.65 54.65 Z"/>
 <path fill="#ffffff" opacity="1.00" d=" M 1317.84 51.91 C 1333.62 37.72 1360.02 37.94 1375.72 52.11 C 1380.01 55.96 1383.08 60.93 1385.25 66.23 C 1385.24 58.82 1385.24 51.41 1385.25 44.00 C 1387.90 44.00 1390.57 44.00 1393.25 44.00 C 1393.25 74.00 1393.25 104.00 1393.25 133.99 C 1393.17 144.55 1394.00 155.44 1390.36 165.55 C 1387.69 173.82 1382.26 181.35 1374.60 185.63 C 1367.46 189.73 1359.13 191.52 1350.93 191.26 C 1339.78 191.48 1327.76 190.36 1318.49 183.56 C 1310.50 177.69 1306.51 167.72 1306.44 158.00 C 1309.09 157.99 1311.75 158.00 1314.41 158.01 C 1314.98 164.54 1317.48 171.12 1322.42 175.60 C 1330.13 183.05 1341.60 184.73 1351.89 184.10 C 1362.17 183.61 1372.89 179.31 1378.82 170.55 C 1383.16 163.92 1385.20 155.95 1385.24 148.07 C 1385.26 139.49 1385.22 130.90 1385.26 122.32 C 1381.57 130.04 1376.05 137.09 1368.58 141.44 C 1359.40 146.76 1348.27 147.63 1337.96 146.09 C 1328.01 144.73 1318.66 139.42 1312.46 131.52 C 1304.97 122.07 1301.93 109.88 1301.38 98.02 C 1300.48 81.41 1305.11 63.36 1317.84 51.91 M 1337.46 49.62 C 1328.22 52.00 1320.47 58.71 1315.98 67.03 C 1309.67 78.55 1308.06 92.28 1310.26 105.13 C 1311.75 114.25 1315.37 123.41 1322.21 129.86 C 1334.68 142.55 1357.08 142.95 1370.39 131.31 C 1375.97 126.48 1379.79 119.86 1382.16 112.93 C 1385.89 101.20 1385.97 88.37 1382.60 76.55 C 1380.02 67.66 1374.73 59.32 1366.89 54.20 C 1358.36 48.45 1347.33 47.28 1337.46 49.62 Z"/>
 <path fill="#ffffff" opacity="1.00" d=" M 1443.59 52.61 C 1451.46 45.23 1462.21 41.07 1473.02 41.48 C 1485.55 40.96 1498.38 45.72 1506.79 55.17 C 1517.28 66.80 1520.37 83.25 1519.65 98.46 C 1491.32 98.56 1462.98 98.47 1434.65 98.51 C 1434.52 109.66 1436.86 121.26 1443.33 130.54 C 1448.83 138.66 1457.79 144.56 1467.60 145.72 C 1476.76 146.76 1486.55 145.45 1494.40 140.32 C 1503.49 134.64 1508.91 124.58 1510.84 114.24 C 1513.49 114.25 1516.16 114.24 1518.84 114.25 C 1517.30 124.17 1513.55 134.19 1506.17 141.25 C 1499.31 148.23 1489.67 151.90 1480.06 152.82 C 1469.46 153.99 1458.18 152.59 1449.01 146.85 C 1441.07 142.16 1435.13 134.56 1431.56 126.14 C 1427.08 115.77 1425.99 104.22 1426.73 93.04 C 1427.51 78.24 1432.54 62.95 1443.59 52.61 M 1456.05 53.18 C 1442.91 61.08 1436.04 76.42 1434.66 91.24 C 1460.29 91.26 1485.92 91.24 1511.55 91.24 C 1511.19 76.57 1504.64 61.13 1491.57 53.49 C 1480.99 47.03 1466.68 46.65 1456.05 53.18 Z"/>
</svg>
