<?xml version="1.0" encoding="UTF-8" ?>
<!DOCTYPE svg PUBLIC "-//W3C//DTD SVG 1.1//EN" "http://www.w3.org/Graphics/SVG/1.1/DTD/svg11.dtd">
<svg width="332pt" height="365pt" viewBox="0 0 332 365" version="1.1" xmlns="http://www.w3.org/2000/svg">
<g id="#000000ff">
<path fill="#d5f959" opacity="1" d=" M 307.28 0.00 L 308.68 0.00 C 310.75 2.74 313.71 4.52 316.40 6.57 C 321.80 10.18 326.57 14.63 332.00 18.19 L 332.00 18.64 C 330.99 19.72 329.98 20.81 329.13 22.03 C 253.75 136.13 178.32 250.20 102.95 364.30 C 68.67 330.36 34.65 296.15 0.56 262.02 C 8.54 253.98 16.57 246.00 24.56 237.98 C 49.69 264.05 74.71 290.22 99.88 316.25 C 168.52 211.80 237.16 107.36 305.78 2.91 C 306.32 1.96 306.82 0.99 307.28 0.00 Z" />
</g>
</svg>
