<svg width="20" height="20" xmlns="http://www.w3.org/2000/svg">
 <title/>
 <desc/>

 <g>
  <title>background</title>
  <rect fill="none" id="canvas_background" height="402" width="582" y="-1" x="-1"/>
 </g>
 <g>
  <title>Layer 1</title>
  <path fill="#fcfcfc" id="Shape" d="m10,0c-5.5,0 -10,4.5 -10,10c0,5.5 4.5,10 10,10c5.5,0 10,-4.5 10,-10c0,-5.5 -4.5,-10 -10,-10l0,0zm0,18c-4.400002,0 -8,-3.6 -8,-8c0,-4.4 3.599998,-8 8,-8c4.4,0 8,3.6 8,8c0,4.4 -3.6,8 -8,8zm0.5,-13l-1.5,0l0,6l5.200001,3.2l0.799999,-1.3l-4.5,-2.7l0,-5.2z"/>
  <ellipse opacity="0.47" ry="8.163508" rx="8.543296" id="svg_1" cy="10.000001" cx="9.972747" stroke-opacity="null" stroke-width="null" stroke="null" fill="#fcfcfc"/>
 </g>
</svg>